<?xml version="1.0" ?><svg id="Layer_1" style="enable-background:new 0 0 100 100;" version="1.1" viewBox="0 0 100 100" xml:space="preserve" xmlns="http://www.w3.org/2000/svg" xmlns:xlink="http://www.w3.org/1999/xlink"><style type="text/css">
	.st0{fill:#A09790;}
	.st1{fill:none;stroke:#A09790;stroke-width:2;stroke-miterlimit:10;}
	.st2{fill:#E5DDD6;}
	.st3{fill:#F17C48;stroke:#281705;stroke-width:2;stroke-linecap:round;stroke-miterlimit:10;}
	.st4{fill:#541731;}
	.st5{fill:#281705;}
	.st6{fill:#FADDCA;}
	.st7{fill:#C83B3D;}
	.st8{fill:#29162B;}
	.st9{fill:#F17C48;}
	.st10{fill:none;stroke:#281705;stroke-linecap:round;stroke-miterlimit:10;}
	.st11{fill:none;stroke:#281705;stroke-width:2.4;stroke-miterlimit:10;}
	.st12{fill:none;stroke:#281705;stroke-width:1.1667;stroke-linecap:round;stroke-miterlimit:10;}
	.st13{fill:none;stroke:#281705;stroke-width:3;stroke-miterlimit:10;}
	.st14{fill:none;stroke:#281705;stroke-width:4;stroke-miterlimit:10;}
	.st15{fill:none;stroke:#281705;stroke-width:3.9881;stroke-miterlimit:10;}
	.st16{fill:none;stroke:#281705;stroke-width:4;stroke-linecap:round;stroke-miterlimit:10;}
	.st17{fill:none;stroke:#281705;stroke-width:3;stroke-linecap:round;stroke-miterlimit:10;}
	.st18{fill:#BADDDB;}
	.st19{fill:#DFEDF2;}
	.st20{fill:#9BC4C1;}
	.st21{fill:#F4F2F0;}
	.st22{fill:#FFFFFF;}
	.st23{fill:#DBD5D1;}
	.st24{fill:none;stroke:#281705;stroke-width:6;stroke-linecap:round;stroke-miterlimit:10;}
	.st25{fill:none;}
</style><rect class="st0" height="10" width="29" x="34" y="68"/><path class="st5" d="M68.4,79H67V42h1.4c1.1,0,2-0.9,2-2c0-1.1-0.9-2-2-2h-39c-1.1,0-2,0.9-2,2c0,1.1,0.9,2,2,2H30v37h-0.6  c-1.1,0-2,0.9-2,2c0,1.1,0.9,2,2,2h39c1.1,0,2-0.9,2-2C70.4,79.9,69.5,79,68.4,79z M34,77V44h29v33H34z"/><path class="st5" d="M58.4,49H50V18.7c1-0.3,1.9-0.7,2.2-1.7h2.2c1.1,0,2-0.9,2-2c0-1.1-0.9-2-2-2h-11c-1.1,0-2,0.9-2,2  c0,1.1,0.9,2,2,2h2.2c0.3,1,1.4,1.4,1.4,1.7V49h-8.6c-1.1,0-2,0.9-2,2c0,1.1,0.9,2,2,2h20c1.1,0,2-0.9,2-2  C60.4,49.9,59.5,49,58.4,49z"/></svg>